<svg width="350" height="560" xmlns="http://www.w3.org/2000/svg" xmlns:xlink="http://www.w3.org/1999/xlink" >
  <defs>
    <radialGradient id="gradient" cx="50%" cy="50%" r="50%" fx="50%" fy="50%">
      <stop offset="0%" style="stop-color:#ffffff;stop-opacity:1" />
      <stop offset="100%" style="stop-color:#c1e0e6;stop-opacity:1" />
    </radialGradient>
    
    <!-- Filter for shadow -->
    <filter id="shadow" x="-50%" y="-50%" width="200%" height="200%">
      <feOffset result="offOut" in="SourceAlpha" dx="0" dy="0" />
      <feGaussianBlur result="blurOut" in="offOut" stdDeviation="1.5" />
      <feBlend in="SourceGraphic" in2="blurOut" mode="normal" />
    </filter>

    <clipPath id="bg-roundedClip">
      <rect x="0" y="0" width="350" height="560" rx="30" ry="30" />
    </clipPath>

   <style type="text/css">
      @import url('https://fonts.googleapis.com/css2?family=Inter:wght@400;600&amp;display=swap');
      
      .titleSemiBold16 {
        font-family: 'Inter', sans-serif;
        font-weight: 600;
        font-size: 16px;
        text-anchor: middle;
      }

      .titleRegular15 {
        font-family: 'Inter', sans-serif;
        font-weight: 300;
        font-size: 15px;
        text-anchor: middle;
      }

      .fieldLabelRegular11 {
        font-family: 'Inter', sans-serif;
        font-weight: 400;
        font-size: 11px;
        text-anchor: start;
        fill: #767676;
      }
      .fieldValueFontRegular11 {
        font-family: 'Inter', sans-serif;
        font-weight: 600; /* Regular */
        font-size: 11px;
        text-anchor: start;
        fill: #000000;
      }
      .fieldValueFontWrappable {
        font-family: 'Inter', sans-serif;
        font-weight: 400; /* Regular */
        font-size: 11px;
        text-anchor: start;
        fill: #000000;
        text-wrap: wrap;
      }
      .horizontalLine {
        font-family: 'Inter', sans-serif;
        font-weight: 600; /* Semi-Bold */
        font-size: 11px;
        text-anchor: start;
        fill: #000000;
        font-weight: bold;
        word-wrap: break-word;
      }
    </style>
    
  </defs>
  <g filter="url(#shadow)">
    <!-- Background Image -->
   <image preserveAspectRatio="xMidYMid slice"  
        width="350" 
        height="560" 
        href="http://localhost:3000/assets/backdrop.png"
        clip-path="url(#bg-roundedClip)"
         /> 
   
  <!-- Logo and Title -->
  <g transform="translate(0, 10)">
    <image xlink:href="https://raw.githubusercontent.com/tw-mosip/file-server/master/StayProtectedInsurance.png" width="40" height="40" x="50%" y="15" transform="translate(-20, 0)" preserveAspectRatio="xMidYMin meet"/>
    <text x="50%" y="80" class="titleSemiBold16" fill="#000000">
      {{credentialSubject/policyName}}
    </text>
    <text x="50%" y="105" class="titleSemiBold16" fill="#000000">
      {{credentialSubject/policyNumber}}
    </text>
  </g>

  <!-- Full Name -->
  <g transform="translate(0, 150)">
    
    <text x="5%" y="0" class="fieldLabelRegular11">Full Name
    </text>
    <text x="5%" y="0" class="fieldValueFontRegular11">
      <path id="fullNametextPath" d="M0,15 L333,15" fill="none"/>
      <textPath href="#fullNametextPath" startOffset="0%" text-anchor="start">{{credentialSubject/fullName}}
      </textPath>
    </text>
   
  </g>

  <!-- Phone number and Gender -->
  <g transform="translate(0, 190)">

    <text x="5%" y="0" class="fieldLabelRegular11">Phone Number
    </text>
    <text x="5%" y="15" class="fieldValueFontRegular11">{{credentialSubject/mobile}}
    </text>
     <text x="60%" y="0" class="fieldLabelRegular11">Gender
    </text>
    <text x="60%" y="15" class="fieldValueFontRegular11">{{credentialSubject/gender}}
    </text>
  </g>

    <!-- Email -->
  <g transform="translate(0, 230)">

    <text x="5%" y="0" class="fieldLabelRegular11">Email
    </text>
    <text x="5%" y="0" width="50" class="fieldValueFontRegular11">
      <path id="emailtextPath" d="M0,15 L333,15" fill="none"/>
      <textPath href="#emailtextPath" startOffset="0%" text-anchor="start">{{credentialSubject/email}}
          </textPath>
    </text>
  </g>

  <!-- Policy Issued , Expired On and Benefits -->
  <g transform="translate(0, 260)">
    <line x1="5%" y1="0" x2="95%" y2="0" stroke="#a9a9a9" stroke-width="0.5" />
    <text x="5%" y="20" class="fieldLabelRegular11">Policy Issued On
    </text>
    <text x="5%" y="35" class="fieldValueFontRegular11">{{credentialSubject/policyIssuedOn}}
    </text>
    <text x="60%" y="20" class="fieldLabelRegular11">Policy Expires On
    </text>
    <text x="60%" y="35" class="fieldValueFontRegular11">{{credentialSubject/policyExpiresOn}}
    </text>
    <text x="5%" y="60" class="fieldLabelRegular11">Benefits
    </text>
    <text x="5%" y="0" class="fieldValueFontRegular11">
       <path id="benefitstextPath" d="M8,63, L335,63" fill="none"/>
      <textPath href="#benefitstextPath" startOffset="0%" text-anchor="start" fill="#000000">
      <tspan x="10" dy="1.2em">{{credentialSubject/benefitsLine1}}</tspan>
      <tspan x="10" dy="1.3em">{{credentialSubject/benefitsLine2}}</tspan>
      </textPath>
    </text>
  </g>

  <!-- Status section with path -->
  <g transform="translate(0, 365)">
    <!-- Horizontal Line -->
    <line x1="5%" y1="0" x2="95%" y2="0" stroke="#a9a9a9" stroke-width="0.5" />
    
    <!-- Row with Image, Path, and Status -->
 <g transform="translate(0, 30)">
    <!-- White border with padding -->
    <rect x="7%" y="0" width="120" height="120" fill="#ffffff" stroke="#ffffff" stroke-width="20" rx="5" ry="5" filter="url(#shadow)" />
    
    <image xlink:href="{{credentialSubject/qrCodeImage}}" width="120" height="120" x="7%" y="0" preserveAspectRatio="xMidYMin meet" />
    
    <!-- Status Label and Value -->
    <text x="70%" y="55" class="titleSemiBold16" fill="#767676">
      Status
    </text>
    <text x="75%" y="78" class="titleSemiBold16" fill="#000000">
      Valid
    </text>
    <!-- Tick Mark -->
    <path d="M12,2C6.48,2 2,6.48 2,12s4.48,10 10,10 10,-4.48 10,-10S17.52,2 12,2zM9.29,16.29L5.7,12.7c-0.39,-0.39 -0.39,-1.02 0,-1.41 0.39,-0.39 1.02,-0.39 1.41,0L10,14.17l6.88,-6.88c0.39,-0.39 1.02,-0.39 1.41,0 0.39,0.39 0.39,1.02 0,1.41l-7.59,7.59c-0.38,0.39 -1.02,0.39 -1.41,0z" fill="#239E00" transform="translate(215, 60)" />
  </g>
  </g>
  </g>
    <!-- Border Rectangle -->
  <rect x="0" y="0" width="350" height="560" fill="none" filter="url(#shadow)" rx="30" ry="30" stroke="#a9a9a9" stroke-width="0.5" />
</svg>
